<svg width="97" height="90" viewBox="0 0 97 90" fill="none" xmlns="http://www.w3.org/2000/svg">
<path fill-rule="evenodd" clip-rule="evenodd" d="M58.4998 0.00585938C41.9313 0.00585938 28.4998 13.4373 28.4998 30.0059C28.4998 46.5744 41.9313 60.0059 58.4998 60.0059C75.0684 60.0059 88.4998 46.5744 88.4998 30.0059C88.4998 13.4373 75.0684 0.00585938 58.4998 0.00585938ZM38.4998 30.0059C38.4998 18.9602 47.4541 10.0059 58.4998 10.0059C69.5455 10.0059 78.4998 18.9602 78.4998 30.0059C78.4998 41.0516 69.5455 50.0059 58.4998 50.0059C47.4541 50.0059 38.4998 41.0516 38.4998 30.0059Z" fill="#E4E7EC"/>
<path d="M29.2768 87.6419C27.821 89.9884 24.7386 90.7104 22.3921 89.2546C20.0456 87.7987 19.3236 84.7163 20.7795 82.3698C27.6265 71.334 41.6338 60.0059 58.4998 60.0059C75.3659 60.0059 89.3733 71.334 96.2203 82.3698C97.6762 84.7163 96.9541 87.7987 94.6077 89.2546C92.2612 90.7104 89.1788 89.9884 87.7229 87.6419C82.1122 78.5986 70.9216 70.0059 58.4999 70.0059C46.0782 70.0059 34.8876 78.5986 29.2768 87.6419Z" fill="#E4E7EC"/>
<path d="M27.9891 17.8044C29.2049 20.2838 28.1806 23.2793 25.7013 24.4952C21.1579 26.7231 18.4998 30.7648 18.4998 35.0059C18.4998 39.2469 21.1579 43.2886 25.7013 45.5166C28.1806 46.7324 29.2049 49.7279 27.9891 52.2073C26.7733 54.6866 23.7778 55.711 21.2984 54.4952C13.9144 50.8742 8.49983 43.6735 8.49983 35.0059C8.49983 26.3382 13.9144 19.1375 21.2984 15.5166C23.7778 14.3008 26.7733 15.3251 27.9891 17.8044Z" fill="#E4E7EC"/>
<path d="M9.27684 87.6419C7.82101 89.9884 4.73862 90.7104 2.39213 89.2546C0.0456403 87.7987 -0.676377 84.7163 0.779459 82.3698C3.67493 77.703 8.3076 73.8077 13.476 70.7855C15.8598 69.3916 18.9222 70.1941 20.3161 72.5779C21.71 74.9617 20.9076 78.0241 18.5238 79.418C14.2052 81.9433 11.0279 84.8196 9.27684 87.6419Z" fill="#E4E7EC"/>
</svg>
