<svg width="121" height="120" viewBox="0 0 121 120" fill="none" xmlns="http://www.w3.org/2000/svg">
<path d="M104.389 23.1976C106.341 21.245 106.341 18.0792 104.389 16.1266C102.436 14.174 99.2704 14.174 97.3177 16.1266L84.6401 28.8042V19.6621C84.6401 16.9007 82.4015 14.6621 79.6401 14.6621C76.8786 14.6621 74.6401 16.9007 74.6401 19.6621L74.6401 40.8753C74.6401 43.6367 76.8786 45.8753 79.6401 45.8753H100.853C103.615 45.8753 105.853 43.6367 105.853 40.8753C105.853 38.1139 103.615 35.8753 100.853 35.8753H91.7111L104.389 23.1976Z" fill="#E4E7EC"/>
<path d="M46.3558 79.1596C46.3558 77.8335 45.829 76.5617 44.8913 75.624C43.9536 74.6864 42.6819 74.1596 41.3558 74.1596L20.1426 74.1596C17.3812 74.1596 15.1426 76.3982 15.1426 79.1596C15.1426 81.921 17.3812 84.1596 20.1426 84.1596L29.2847 84.1596L16.607 96.8372C14.6544 98.7899 14.6544 101.956 16.607 103.908C18.5597 105.861 21.7255 105.861 23.6781 103.908L36.3558 91.2306L36.3558 100.373C36.3558 103.134 38.5944 105.373 41.3558 105.373C44.1172 105.373 46.3558 103.134 46.3558 100.373L46.3558 79.1596Z" fill="#E4E7EC"/>
<path d="M23.6782 16.1268C21.7256 14.1741 18.5598 14.1741 16.6071 16.1268C14.6545 18.0794 14.6545 21.2452 16.6071 23.1978L29.2848 35.8755H20.1427C17.3812 35.8755 15.1427 38.1141 15.1427 40.8755C15.1427 43.6369 17.3812 45.8755 20.1427 45.8755H41.3559C44.1173 45.8755 46.3559 43.6369 46.3559 40.8755V19.6623C46.3559 16.9009 44.1173 14.6623 41.3559 14.6623C38.5944 14.6623 36.3559 16.9009 36.3559 19.6623V28.8044L23.6782 16.1268Z" fill="#E4E7EC"/>
<path d="M79.6402 74.1598C78.3141 74.1598 77.0423 74.6865 76.1046 75.6242C75.1669 76.5619 74.6401 77.8337 74.6401 79.1598L74.6402 100.373C74.6402 103.134 76.8787 105.373 79.6402 105.373C82.4016 105.373 84.6402 103.134 84.6401 100.373L84.6401 91.2308L97.3178 103.909C99.2704 105.861 102.436 105.861 104.389 103.909C106.342 101.956 106.342 98.7901 104.389 96.8374L91.7112 84.1598L100.853 84.1598C103.615 84.1598 105.853 81.9212 105.853 79.1598C105.853 76.3983 103.615 74.1598 100.853 74.1598L79.6402 74.1598Z" fill="#E4E7EC"/>
</svg>
