<svg width="94" height="100" viewBox="0 0 94 100" fill="none" xmlns="http://www.w3.org/2000/svg">
<path fill-rule="evenodd" clip-rule="evenodd" d="M46.8392 21.5434C54.2003 21.5434 60.1676 27.5107 60.1676 34.8717C60.1676 42.2328 54.2003 48.2001 46.8392 48.2001C39.4782 48.2001 33.5109 42.2328 33.5109 34.8717C33.5109 27.5107 39.4782 21.5434 46.8392 21.5434ZM50.1676 34.8717C50.1676 33.0336 48.6774 31.5434 46.8392 31.5434C45.0011 31.5434 43.5109 33.0336 43.5109 34.8717C43.5109 36.7099 45.0011 38.2001 46.8392 38.2001C48.6774 38.2001 50.1676 36.7099 50.1676 34.8717Z" fill="#E4E7EC"/>
<path fill-rule="evenodd" clip-rule="evenodd" d="M0.197693 20.7227C0.197693 9.67696 9.152 0.722656 20.1977 0.722656H73.4808C84.5265 0.722656 93.4808 9.67696 93.4808 20.7227V49.0208C93.4808 51.7457 92.9359 54.3434 91.949 56.7107L90.5481 67.0099C89.9937 71.0857 88.2636 74.6745 85.7647 77.5124C85.6984 77.7193 85.6179 77.9242 85.5227 78.1259L80.7846 88.1687C75.4538 99.4677 61.1837 103.168 51.0343 95.8827L8.08526 65.0545C7.7235 64.7949 7.40674 64.4958 7.13661 64.1675C2.88725 60.4999 0.197693 55.0745 0.197693 49.0208V20.7227ZM73.4808 69.0208C75.7875 69.0208 78.003 68.6303 80.0649 67.9118C78.2495 72.6441 73.0283 75.4056 67.9227 73.9119L51.2043 69.0208H73.4808ZM13.6966 13.124C11.5549 14.9581 10.1977 17.6819 10.1977 20.7227V49.0208C10.1977 52.0616 11.5549 54.7854 13.6966 56.6195C13.0648 55.7823 12.6902 54.7401 12.6902 53.6104C12.6902 50.849 14.9287 48.6104 17.6902 48.6104H26.0185C28.7799 48.6104 31.0185 50.849 31.0185 53.6104C31.0185 56.3719 28.7799 58.6104 26.0185 58.6104H17.6902C17.5602 58.6104 17.4314 58.6055 17.3039 58.5957C18.22 58.8722 19.1915 59.0208 20.1977 59.0208H73.4808C74.487 59.0208 75.4585 58.8722 76.3746 58.5957C76.2471 58.6055 76.1183 58.6104 75.9883 58.6104H67.66C64.8986 58.6104 62.66 56.3719 62.66 53.6104C62.66 50.849 64.8986 48.6104 67.66 48.6104H75.9883C78.7498 48.6104 80.9883 50.849 80.9883 53.6104C80.9883 54.7401 80.6137 55.7823 79.9819 56.6195C82.1236 54.7854 83.4808 52.0616 83.4808 49.0208V20.7227C83.4808 17.6819 82.1236 14.9581 79.9819 13.124C80.6137 13.9612 80.9883 15.0034 80.9883 16.133C80.9883 18.8945 78.7498 21.133 75.9883 21.133H67.66C64.8986 21.133 62.66 18.8945 62.66 16.133C62.66 13.3716 64.8986 11.133 67.66 11.133H75.9883C76.1183 11.133 76.2471 11.138 76.3745 11.1477C75.4585 10.8713 74.487 10.7227 73.4808 10.7227H20.1977C19.1915 10.7227 18.22 10.8713 17.3039 11.1477C17.4314 11.138 17.5602 11.133 17.6902 11.133H26.0185C28.7799 11.133 31.0185 13.3716 31.0185 16.133C31.0185 18.8945 28.7799 21.133 26.0185 21.133H17.6902C14.9287 21.133 12.6902 18.8945 12.6902 16.133C12.6902 15.0034 13.0648 13.9612 13.6966 13.124ZM71.5384 84.3071C69.431 84.391 67.2678 84.1395 65.1149 83.5096L41.1972 76.5124L56.8654 87.7588C61.8168 91.3128 68.7295 89.638 71.5384 84.3071Z" fill="#E4E7EC"/>
</svg>
