<svg width="13" height="15" viewBox="0 0 13 15" fill="none" xmlns="http://www.w3.org/2000/svg">
<path d="M3.83333 3.99935C3.46514 3.99935 3.16667 4.29783 3.16667 4.66602C3.16667 5.0342 3.46514 5.33268 3.83333 5.33268H9.16667C9.53486 5.33268 9.83333 5.0342 9.83333 4.66602C9.83333 4.29783 9.53486 3.99935 9.16667 3.99935H3.83333Z" fill="white"/>
<path d="M3.16667 7.99935C3.16667 7.63116 3.46514 7.33268 3.83333 7.33268H9.16667C9.53486 7.33268 9.83333 7.63116 9.83333 7.99935C9.83333 8.36754 9.53486 8.66602 9.16667 8.66602H3.83333C3.46514 8.66602 3.16667 8.36754 3.16667 7.99935Z" fill="white"/>
<path d="M3.83333 10.666C3.46514 10.666 3.16667 10.9645 3.16667 11.3327C3.16667 11.7009 3.46514 11.9993 3.83333 11.9993H5.61111C5.9793 11.9993 6.27778 11.7009 6.27778 11.3327C6.27778 10.9645 5.9793 10.666 5.61111 10.666H3.83333Z" fill="white"/>
<path d="M7.38889 10.666C7.0207 10.666 6.72222 10.9645 6.72222 11.3327C6.72222 11.7009 7.0207 11.9993 7.38889 11.9993H9.16667C9.53486 11.9993 9.83333 11.7009 9.83333 11.3327C9.83333 10.9645 9.53486 10.666 9.16667 10.666H7.38889Z" fill="white"/>
<path fill-rule="evenodd" clip-rule="evenodd" d="M8.82121 14.6002C8.89617 14.6189 8.96884 14.6458 9.03794 14.6803C10.6285 15.4756 12.5 14.319 12.5 12.5407V3.33268C12.5 1.85992 11.3061 0.666016 9.83333 0.666016H3.16667C1.69391 0.666016 0.5 1.85992 0.5 3.33268V12.5407C0.5 14.319 2.37146 15.4756 3.96206 14.6803C4.03116 14.6458 4.10383 14.6189 4.17879 14.6002L6.17662 14.1007C6.38894 14.0476 6.61106 14.0476 6.82338 14.1007L8.82121 14.6002ZM1.83333 3.33268C1.83333 2.5963 2.43029 1.99935 3.16667 1.99935H9.83333C10.5697 1.99935 11.1667 2.5963 11.1667 3.33268V12.5407C11.1667 13.3278 10.3383 13.8398 9.63423 13.4878C9.47812 13.4097 9.31393 13.349 9.1446 13.3066L7.14676 12.8072C6.72212 12.701 6.27788 12.701 5.85324 12.8072L3.85541 13.3066C3.68607 13.349 3.52189 13.4097 3.36577 13.4878C2.66171 13.8398 1.83333 13.3278 1.83333 12.5407V3.33268Z" fill="white"/>
</svg>


