<svg width="12" height="12" viewBox="0 0 12 12" fill="none" xmlns="http://www.w3.org/2000/svg">
<path d="M3.21371 0.797485C3.06294 0.948261 2.97058 1.15779 2.97088 1.38789L2.97088 1.48917C2.97088 1.94997 3.34391 2.323 3.80412 2.32241L8.35704 2.32241L0.655287 10.0242C0.330017 10.3494 0.330018 10.8774 0.655287 11.2027C0.980556 11.5279 1.50853 11.5279 1.8338 11.2027L9.53555 3.50093V8.05385C9.53555 8.51464 9.90859 8.88768 10.3688 8.88709H10.4701C10.9309 8.88709 11.3039 8.51405 11.3033 8.05385V1.38789C11.3033 0.927094 10.9303 0.554058 10.4701 0.554647L3.80412 0.554647C3.57372 0.554647 3.36449 0.646709 3.21371 0.797485Z" fill="#0F973D"/>
</svg>
