<svg width="22" height="19" viewBox="0 0 22 19" fill="none" xmlns="http://www.w3.org/2000/svg">
<path d="M4.09106 3.41636C3.54088 3.36822 3.05585 3.77521 3.00771 4.3254C2.95958 4.87558 3.36657 5.36061 3.91675 5.40875L5.90914 5.58306C6.45932 5.63119 6.94436 5.2242 6.99249 4.67402C7.04063 4.12384 6.63363 3.63881 6.08345 3.59067L4.09106 3.41636Z" fill="black"/>
<path d="M15.0077 5.3254C15.0558 4.77521 15.5409 4.36822 16.0911 4.41636L18.0835 4.59067C18.6336 4.63881 19.0406 5.12384 18.9925 5.67402C18.9444 6.2242 18.4593 6.63119 17.9091 6.58306L15.9168 6.40875C15.3666 6.36061 14.9596 5.87558 15.0077 5.3254Z" fill="black"/>
<path d="M4.09106 12.0035C3.54088 11.9554 3.05585 12.3624 3.00771 12.9126C2.95958 13.4627 3.36657 13.9478 3.91675 13.9959L5.90914 14.1702C6.45932 14.2184 6.94436 13.8114 6.99249 13.2612C7.04063 12.711 6.63363 12.226 6.08345 12.1778L4.09106 12.0035Z" fill="black"/>
<path d="M15.0077 14.3254C15.0558 13.7752 15.5409 13.3682 16.0911 13.4164L18.0835 13.5907C18.6336 13.6388 19.0406 14.1238 18.9925 14.674C18.9444 15.2242 18.4593 15.6312 17.9091 15.5831L15.9168 15.4087C15.3666 15.3606 14.9596 14.8756 15.0077 14.3254Z" fill="black"/>
<path fill-rule="evenodd" clip-rule="evenodd" d="M11 5.99971C12.6569 5.99971 14 7.34286 14 8.99971C14 10.6566 12.6569 11.9997 11 11.9997C9.34315 11.9997 8 10.6566 8 8.99971C8 7.34286 9.34315 5.99971 11 5.99971ZM12 8.99971C12 8.44743 11.5523 7.99971 11 7.99971C10.4477 7.99971 10 8.44743 10 8.99971C10 9.552 10.4477 9.99971 11 9.99971C11.5523 9.99971 12 9.552 12 8.99971Z" fill="black"/>
<path fill-rule="evenodd" clip-rule="evenodd" d="M4.24433 0.241306C1.9311 0.0427544 0 1.8756 0 4.16833V12.1594C0 14.2845 1.65497 16.0302 3.74824 16.2064C4.60626 16.2785 5.65879 16.373 6.90243 16.4949C7.12536 16.5168 7.62104 16.6179 8.33769 16.7836C8.80886 16.8926 9.33925 17.0206 9.89645 17.1551C10.1591 17.2185 10.4286 17.2836 10.6998 17.3486C11.5391 17.5496 12.3972 17.7504 13.1357 17.9015C13.8428 18.0462 14.5356 18.1664 14.9958 18.1684C16.1394 18.1732 17.2579 18.1516 18.2151 18.1224C20.3562 18.0571 22 16.2882 22 14.1809V6.19252C22 3.8801 20.0564 2.07259 17.7836 2.13402C16.931 2.15706 15.9751 2.17251 15.0042 2.1684C14.7734 2.16743 14.2712 2.09239 13.5366 1.94208C12.8335 1.79819 12.0034 1.60425 11.1657 1.40358C10.9033 1.34073 10.6395 1.27705 10.3793 1.21423L10.3782 1.21399C9.8155 1.07815 9.26895 0.946221 8.78829 0.835069C8.10812 0.677777 7.47589 0.541574 7.09757 0.504484C5.99864 0.396746 5.04679 0.310185 4.24433 0.241306ZM2 4.16833C2 3.01855 2.95662 2.13813 4.07329 2.23398C4.86777 2.30217 5.81158 2.388 6.90243 2.49494C7.12536 2.5168 7.62104 2.61792 8.33769 2.78365C8.80894 2.89262 9.33942 3.02068 9.89672 3.1552C10.1596 3.21866 10.4284 3.28355 10.6998 3.34856C11.5391 3.5496 12.3972 3.75036 13.1357 3.90147C13.8428 4.04617 14.5356 4.16644 14.9958 4.16838C15.9924 4.1726 16.9697 4.15674 17.8377 4.13329C19.0241 4.10122 20 5.04441 20 6.19252V14.1809C20 15.2423 19.1803 16.092 18.1541 16.1234C17.2131 16.1521 16.1187 16.1731 15.0042 16.1684C14.7734 16.1674 14.2712 16.0924 13.5366 15.9421C12.8335 15.7982 12.0034 15.6042 11.1657 15.4036C10.903 15.3407 10.639 15.2769 10.3784 15.214C9.81559 15.0782 9.26903 14.9462 8.7883 14.8351C8.10812 14.6778 7.47589 14.5416 7.09757 14.5045C5.84472 14.3817 4.78303 14.2864 3.91593 14.2134C2.83407 14.1224 2 13.2206 2 12.1594V4.16833Z" fill="black"/>
</svg>
